<svg xmlns="http://www.w3.org/2000/svg" width="1672" height="941" aria-labelledby="title desc" role="img" viewBox="0 0 1672 941"><title id="title">Router Models and Inference Runtime Workgroup</title><desc id="desc">A model-family flywheel improves and activates versioned Router Model artifacts. A separate layered inference runtime transforms request features into typed routing signals through a common model contract, lifecycle services, and engine adapters.</desc><defs><linearGradient id="blue" x1="0" x2="1" y1="0" y2="1"><stop stop-color="#f8fbff"/><stop offset="1" stop-color="#eaf3ff"/></linearGradient><linearGradient id="green" x1="0" x2="1" y1="0" y2="1"><stop stop-color="#fbfff9"/><stop offset="1" stop-color="#edf8e9"/></linearGradient><linearGradient id="amber" x1="0" x2="1" y1="0" y2="1"><stop stop-color="#fffdf8"/><stop offset="1" stop-color="#fff2d8"/></linearGradient><linearGradient id="violet" x1="0" x2="1" y1="0" y2="1"><stop stop-color="#fdfcff"/><stop offset="1" stop-color="#f1edff"/></linearGradient><filter id="shadow" width="140%" height="140%" x="-20%" y="-20%"><feDropShadow dx="0" dy="5" flood-color="#1d2939" flood-opacity=".1" stdDeviation="7"/></filter><marker id="arrow" markerHeight="8" markerWidth="8" orient="auto" refX="9" refY="5" viewBox="0 0 10 10"><path fill="#111827" d="M0 0l10 5-10 5z"/></marker><marker id="blue-arrow" markerHeight="8" markerWidth="8" orient="auto" refX="9" refY="5" viewBox="0 0 10 10"><path fill="#2563eb" d="M0 0l10 5-10 5z"/></marker><style>.s{font-family:Inter,ui-sans-serif,-apple-system,BlinkMacSystemFont,&quot;Segoe UI&quot;,Arial,sans-serif}.t{font-size:42px;font-weight:760;fill:#111827;letter-spacing:-.6px}.sub{font-size:21px;fill:#475467}.pt,.st{font-size:22px;font-weight:750;fill:#111827}.st{font-size:17px}.sm{font-size:14px;fill:#475467}.tiny{font-size:12px;font-weight:650;fill:#667085;letter-spacing:.4px}.card,.line,.loop{stroke:#111827;stroke-width:2.2}.line,.loop{fill:none;stroke-width:2.5;marker-end:url(#arrow)}.loop{stroke:#2563eb;marker-end:url(#blue-arrow)}</style></defs><rect width="1672" height="941" fill="#fff"/><g class="s"><path fill="#FDB515" d="M0 8.65h16.22V40L0 8.65z" transform="translate(48 35)"/><path fill="#30A2FF" d="M24.33 7.57L38.93 0 28.12 40H16.22l8.11-32.43z" transform="translate(48 35)"/><text x="53" y="25" fill="#111827" font-size="25" font-weight="780" transform="translate(48 35)">vLLM</text><text x="53" y="42" fill="#475467" font-size="12" font-weight="720" letter-spacing="1.4" transform="translate(48 35)">SEMANTIC ROUTER</text></g><g class="s" text-anchor="end"><text x="1624" y="50" class="tiny">WORKGROUP 02</text><text x="1624" y="75" fill="#2563eb" font-size="16" font-weight="650">@vllm-sr.ai</text></g><g class="s" text-anchor="middle"><text x="836" y="105" class="t">ROUTER MODELS &amp; INFERENCE RUNTIME</text><text x="836" y="137" class="sub">Improve routing intelligence and execute it through one extensible model runtime.</text></g><g class="s" filter="url(#shadow)"><rect width="390" height="612" x="43" y="183" fill="#fcfcfd" class="card" rx="18"/><text x="238" y="223" class="pt" text-anchor="middle">MODEL FAMILY + FLYWHEEL</text><text x="238" y="247" class="sm" text-anchor="middle">Improve model quality without bypassing review</text><rect width="332" height="57" x="72" y="276" fill="url(#blue)" stroke="#111827" stroke-width="1.8" rx="11"/><circle cx="102" cy="304.5" r="13" fill="#bfdbfe" stroke="#111827" stroke-width="1.8"/><text x="126" y="300" class="st">CURRENT ROUTER MODELS</text><text x="126" y="321" fill="#475467" font-size="12">post-train · distill · calibrate</text><rect width="332" height="57" x="72" y="348" fill="url(#green)" stroke="#111827" stroke-width="1.8" rx="11"/><path fill="#b9e4ae" stroke="#111827" stroke-width="1.8" d="M89 389l13-27 13 27z"/><text x="126" y="372" class="st">ROUTING-NATIVE SLMs</text><text x="126" y="393" fill="#475467" font-size="12">new families beyond BERT-only designs</text><rect width="332" height="57" x="72" y="420" fill="url(#amber)" stroke="#111827" stroke-width="1.8" rx="11"/><path fill="#fde68a" stroke="#111827" stroke-width="1.8" d="M90 437h24v24H90z"/><path stroke="#111827" stroke-width="1.5" d="M96 443h12M96 449h12M96 455h8"/><text x="126" y="444" class="st">SPECIALIZED SIGNALS</text><text x="126" y="465" fill="#475467" font-size="12">long context · multimodal · retrieval · agentic</text><rect width="220" height="49" x="128" y="500" fill="url(#blue)" stroke="#2563eb" stroke-width="1.8" rx="10"/><text x="238" y="530" class="st" text-anchor="middle">DATA + OUTCOMES</text><rect width="98" height="67" x="311" y="569" fill="url(#amber)" stroke="#111827" stroke-width="1.8" rx="10"/><text x="360" y="597" class="st" text-anchor="middle">IMPROVE</text><text x="360" y="619" fill="#475467" font-size="12" text-anchor="middle">train · distill</text><rect width="220" height="49" x="128" y="696" fill="url(#green)" stroke="#111827" stroke-width="1.8" rx="10"/><text x="238" y="726" class="st" text-anchor="middle">EVALUATE + CALIBRATE</text><rect width="98" height="67" x="67" y="569" fill="url(#violet)" stroke="#111827" stroke-width="1.8" rx="10"/><text x="116" y="596" fill="#111827" font-size="15" font-weight="750" text-anchor="middle">ACTIVATE</text><text x="116" y="619" fill="#475467" font-size="12" text-anchor="middle">or rollback</text><circle cx="238" cy="612" r="64" fill="#fff" stroke="#2563eb" stroke-width="2.5"/><path fill="#bfdbfe" stroke="#111827" stroke-width="2" d="M205 590l33-18 33 18-33 18z"/><path fill="#8bc1ff" fill-opacity=".7" stroke="#111827" stroke-width="2" d="M205 590v35l33 19v-36zM271 590v35l-33 19v-36"/><text x="238" y="669" class="tiny" text-anchor="middle">VERSIONED ARTIFACT</text><path d="M348 525C392 531 409 548 409 569" class="loop"/><path d="M360 636C360 673 331 696 300 696" class="loop"/><path d="M176 721C117 715 67 681 67 635" class="loop"/><path d="M116 569C116 536 135 516 164 508" class="loop"/></g><g class="s" filter="url(#shadow)"><rect width="1163" height="612" x="465" y="183" fill="url(#violet)" class="card" rx="18"/><text x="1046.5" y="223" class="pt" text-anchor="middle">TYPED INFERENCE RUNTIME</text><text x="1046.5" y="247" class="sm" text-anchor="middle">One execution contract separates model intelligence from engine-specific code</text><rect width="205" height="157" x="500" y="278" fill="url(#blue)" stroke="#111827" stroke-width="2" rx="13"/><text x="602.5" y="310" class="st" text-anchor="middle">REQUEST FEATURES</text><rect width="141" height="49" x="532" y="332" fill="#fff" stroke="#111827" stroke-width="1.8" rx="10"/><path stroke="#2563eb" stroke-width="2" d="M548 348h109M548 363h76"/><text x="602.5" y="408" class="sm" text-anchor="middle">text · metadata · context</text><path d="M705 356h52" class="line"/><rect width="365" height="185" x="759" y="264" fill="#fff" stroke="#111827" stroke-width="2.2" rx="14"/><text x="941.5" y="299" class="st" text-anchor="middle">ROUTER MODEL ARTIFACT</text><text x="941.5" y="322" fill="#475467" font-size="12" text-anchor="middle">immutable identity · capabilities · input/output schema</text><rect width="63" height="31" x="789" y="346" fill="#dbeafe" stroke="#93c5fd" rx="15"/><text x="820.5" y="367" fill="#475467" font-size="13" text-anchor="middle">intent</text><rect width="88" height="31" x="864" y="346" fill="#dcfce7" stroke="#86d875" rx="15"/><text x="908" y="367" fill="#475467" font-size="13" text-anchor="middle">complexity</text><rect width="63" height="31" x="964" y="346" fill="#fef3c7" stroke="#f4c35c" rx="15"/><text x="995.5" y="367" fill="#475467" font-size="13" text-anchor="middle">safety</text><rect width="55" height="31" x="1039" y="346" fill="#ede9fe" stroke="#ab9bea" rx="15"/><text x="1066.5" y="367" fill="#475467" font-size="12" text-anchor="middle">quality</text><rect width="211" height="34" x="836" y="393" fill="url(#violet)" stroke="#6d5bd0" stroke-width="1.8" rx="9"/><text x="941.5" y="416" fill="#667085" font-size="11" font-weight="650" text-anchor="middle">LOAD · WARM · EXECUTE · DRAIN</text><path d="M1124 356h52" class="line"/><rect width="415" height="157" x="1178" y="278" fill="url(#green)" stroke="#111827" stroke-width="2" rx="13"/><text x="1385.5" y="310" class="st" text-anchor="middle">TYPED SIGNAL VECTOR</text><rect width="351" height="73" x="1210" y="332" fill="#fff" stroke="#111827" stroke-width="1.8" rx="10"/><text x="1229" y="354" fill="#475467" font-size="12">intent</text><rect width="225" height="10" x="1291" y="344" fill="#bfdbfe" rx="5"/><text x="1229" y="379" fill="#475467" font-size="12">quality</text><rect width="171" height="10" x="1291" y="369" fill="#b9e4ae" rx="5"/><text x="1385.5" y="425" class="sm" text-anchor="middle">explainable output consumed by MoM recipes</text><rect width="1093" height="73" x="500" y="485" fill="#fff" stroke="#2563eb" stroke-width="2" rx="12"/><text x="529" y="515" class="st">TYPED MODEL CONTRACT</text><rect width="202" height="40" x="793" y="501" fill="url(#blue)" stroke="#93c5fd" rx="9"/><text x="894" y="526" class="sm" text-anchor="middle">artifact identity</text><rect width="202" height="40" x="1012" y="501" fill="url(#green)" stroke="#86d875" rx="9"/><text x="1113" y="526" class="sm" text-anchor="middle">capability schema</text><rect width="331" height="40" x="1231" y="501" fill="url(#amber)" stroke="#f4c35c" rx="9"/><text x="1396.5" y="526" class="sm" text-anchor="middle">typed input · output · diagnostics</text><rect width="1093" height="73" x="500" y="574" fill="#fff" stroke="#388e3c" stroke-width="2" rx="12"/><text x="529" y="604" class="st">RUNTIME LIFECYCLE</text><text x="808" y="615" class="sm" text-anchor="middle">load</text><circle cx="808" cy="594" r="6" fill="#60a5fa"/><text x="918" y="615" class="sm" text-anchor="middle">warm</text><circle cx="918" cy="594" r="6" fill="#7bc66c"/><text x="1048" y="615" class="sm" text-anchor="middle">batch</text><circle cx="1048" cy="594" r="6" fill="#f7b84b"/><text x="1188" y="615" class="sm" text-anchor="middle">diagnose</text><circle cx="1188" cy="594" r="6" fill="#9b8ae6"/><text x="1338" y="615" class="sm" text-anchor="middle">drain</text><circle cx="1338" cy="594" r="6" fill="#60a5fa"/><text x="1480" y="615" class="sm" text-anchor="middle">rollback</text><circle cx="1480" cy="594" r="6" fill="#7bc66c"/><rect width="1093" height="101" x="500" y="663" fill="#fff" stroke="#6d5bd0" stroke-width="2" rx="12"/><text x="529" y="704" class="st">ENGINE ADAPTERS</text><rect width="181" height="61" x="734" y="682" fill="url(#blue)" stroke="#111827" stroke-width="1.8" rx="10"/><text x="824.5" y="708" class="st" text-anchor="middle">LOCAL</text><text x="824.5" y="730" fill="#475467" font-size="12" text-anchor="middle">Candle</text><rect width="181" height="61" x="934" y="682" fill="url(#green)" stroke="#111827" stroke-width="1.8" rx="10"/><text x="1024.5" y="708" class="st" text-anchor="middle">ONNX</text><text x="1024.5" y="730" fill="#475467" font-size="12" text-anchor="middle">ONNX Runtime</text><rect width="181" height="61" x="1134" y="682" fill="url(#amber)" stroke="#111827" stroke-width="1.8" rx="10"/><text x="1224.5" y="708" class="st" text-anchor="middle">REMOTE</text><text x="1224.5" y="730" fill="#475467" font-size="12" text-anchor="middle">vLLM · TEI</text><rect width="228" height="61" x="1334" y="682" fill="url(#violet)" stroke="#111827" stroke-width="1.8" rx="10"/><text x="1448" y="708" class="st" text-anchor="middle">ECOSYSTEM</text><text x="1448" y="730" fill="#475467" font-size="12" text-anchor="middle">qualified extensions</text></g><g class="s"><rect width="1585" height="53" x="43" y="825" fill="#fcfcfd" stroke="#111827" stroke-width="2" rx="12"/><text x="238" y="858" class="st" text-anchor="middle">MODEL INTELLIGENCE</text><text x="511" y="858" class="sm">improves through the flywheel</text><path d="M736 851h92" class="line"/><text x="866" y="858" class="st">RUNTIME CONTRACT</text><text x="1062" y="858" class="sm">keeps execution portable</text><path d="M1274 851h92" class="line"/><text x="1404" y="858" class="st">TYPED SIGNALS</text><text x="1545" y="858" class="sm">guide MoM</text></g><g class="s"><rect width="1592" height="1" x="40" y="900" fill="#e4e7ec"/><text x="48" y="925" class="tiny">OWNS</text><text x="100" y="925" class="sm">Router Model quality · routing-native model families · typed inference runtime · artifact lifecycle</text><text x="1624" y="925" class="sm" text-anchor="end">MoM recipes consume signals · Data Plane carries the live request</text></g></svg>