<svg xmlns="http://www.w3.org/2000/svg" xmlns:xlink="http://www.w3.org/1999/xlink" width="1651.2" height="960" version="1.1" viewBox="0 0 1238.4 720"><metadata><rdf:RDF xmlns:cc="http://creativecommons.org/ns#" xmlns:dc="http://purl.org/dc/elements/1.1/" xmlns:rdf="http://www.w3.org/1999/02/22-rdf-syntax-ns#"><cc:Work><dc:type rdf:resource="http://purl.org/dc/dcmitype/StillImage"/><dc:date>2026-09-17</dc:date><dc:format>image/svg+xml</dc:format><dc:creator><cc:Agent><dc:title>Matplotlib v3.11.2, https://matplotlib.org/</dc:title></cc:Agent></dc:creator></cc:Work></rdf:RDF></metadata><defs><style type="text/css">*{stroke-linejoin:round;stroke-linecap:butt}</style></defs><g id="figure_1"><g id="patch_1"><path d="M 0 720 L 1238.4 720 L 1238.4 0 L 0 0 z" style="fill:#fff"/></g><g id="axes_1"><g id="patch_2"><path d="M 74.304 482.4 L 712.08 482.4 L 712.08 172.8 L 74.304 172.8 z" style="fill:#fff"/></g><g id="matplotlib.axis_1"><g id="xtick_1"><g id="line2d_1"><path d="M 176.504229 482.4 L 176.504229 172.8" clip-path="url(#p334a77a673)" style="fill:none;stroke:#eaf0f3;stroke-width:.7;stroke-linecap:square"/></g><g id="text_1"><text style="font-size:11px;font-family:'DejaVu Sans';text-anchor:middle;fill:#607080" x="176.504" y="497.757" transform="rotate(-0 176.504229 497.757422)">10M</text></g></g><g id="xtick_2"><g id="line2d_3"><path d="M 346.255136 482.4 L 346.255136 172.8" clip-path="url(#p334a77a673)" style="fill:none;stroke:#eaf0f3;stroke-width:.7;stroke-linecap:square"/></g><g id="text_2"><text style="font-size:11px;font-family:'DejaVu Sans';text-anchor:middle;fill:#607080" x="346.255" y="497.757" transform="rotate(-0 346.255136 497.757422)">100M</text></g></g><g id="xtick_3"><g id="line2d_5"><path d="M 516.006042 482.4 L 516.006042 172.8" clip-path="url(#p334a77a673)" style="fill:none;stroke:#eaf0f3;stroke-width:.7;stroke-linecap:square"/></g><g id="text_3"><text style="font-size:11px;font-family:'DejaVu Sans';text-anchor:middle;fill:#607080" x="516.006" y="497.757" transform="rotate(-0 516.006042 497.757422)">1B</text></g></g><g id="xtick_4"><g id="line2d_7"><path d="M 685.756948 482.4 L 685.756948 172.8" clip-path="url(#p334a77a673)" style="fill:none;stroke:#eaf0f3;stroke-width:.7;stroke-linecap:square"/></g><g id="text_4"><text style="font-size:11px;font-family:'DejaVu Sans';text-anchor:middle;fill:#607080" x="685.757" y="497.757" transform="rotate(-0 685.756948 497.757422)">10B</text></g></g><g id="text_5"><text style="font-size:10.5px;font-family:'DejaVu Sans';text-anchor:middle;fill:#142b38" x="393.192" y="518.378" transform="rotate(-0 393.192 518.378359)">Total model parameters · logarithmic scale</text></g></g><g id="matplotlib.axis_2"><g id="ytick_1"><g id="line2d_40"><path d="M 74.304 432.430705 L 712.08 432.430705" clip-path="url(#p334a77a673)" style="fill:none;stroke:#eaf0f3;stroke-width:.7;stroke-linecap:square"/></g><g id="text_6"><text style="font-size:11px;font-family:'DejaVu Sans';text-anchor:end;fill:#607080" x="67.304" y="436.609" transform="rotate(-0 67.304 436.609416)">36</text></g></g><g id="ytick_2"><g id="line2d_42"><path d="M 74.304 376.906555 L 712.08 376.906555" clip-path="url(#p334a77a673)" style="fill:none;stroke:#eaf0f3;stroke-width:.7;stroke-linecap:square"/></g><g id="text_7"><text style="font-size:11px;font-family:'DejaVu Sans';text-anchor:end;fill:#607080" x="67.304" y="381.085" transform="rotate(-0 67.304 381.085266)">42</text></g></g><g id="ytick_3"><g id="line2d_44"><path d="M 74.304 321.382405 L 712.08 321.382405" clip-path="url(#p334a77a673)" style="fill:none;stroke:#eaf0f3;stroke-width:.7;stroke-linecap:square"/></g><g id="text_8"><text style="font-size:11px;font-family:'DejaVu Sans';text-anchor:end;fill:#607080" x="67.304" y="325.561" transform="rotate(-0 67.304 325.561116)">48</text></g></g><g id="ytick_4"><g id="line2d_46"><path d="M 74.304 265.858254 L 712.08 265.858254" clip-path="url(#p334a77a673)" style="fill:none;stroke:#eaf0f3;stroke-width:.7;stroke-linecap:square"/></g><g id="text_9"><text style="font-size:11px;font-family:'DejaVu Sans';text-anchor:end;fill:#607080" x="67.304" y="270.037" transform="rotate(-0 67.304 270.036965)">54</text></g></g><g id="ytick_5"><g id="line2d_48"><path d="M 74.304 210.334104 L 712.08 210.334104" clip-path="url(#p334a77a673)" style="fill:none;stroke:#eaf0f3;stroke-width:.7;stroke-linecap:square"/></g><g id="text_10"><text style="font-size:11px;font-family:'DejaVu Sans';text-anchor:end;fill:#607080" x="67.304" y="214.513" transform="rotate(-0 67.304 214.512815)">60</text></g></g><g id="text_11"><text style="font-size:10.5px;font-family:'DejaVu Sans';text-anchor:middle;fill:#142b38" x="41.784" y="327.6" transform="rotate(-90 41.784039 327.6)">Mean(TaskType) × 100 ↑</text></g></g><g id="PathCollection_1"><defs><path id="mc059a4e2fc" d="M 0 2.598076 C 0.689018 2.598076 1.349908 2.324327 1.837117 1.837117 C 2.324327 1.349908 2.598076 0.689018 2.598076 0 C 2.598076 -0.689018 2.324327 -1.349908 1.837117 -1.837117 C 1.349908 -2.324327 0.689018 -2.598076 0 -2.598076 C -0.689018 -2.598076 -1.349908 -2.324327 -1.837117 -1.837117 C -2.324327 -1.349908 -2.598076 -0.689018 -2.598076 0 C -2.598076 0.689018 -2.324327 1.349908 -1.837117 1.837117 C -1.349908 2.324327 -0.689018 2.598076 0 2.598076 z" style="stroke:#fff;stroke-opacity:.8;stroke-width:.3"/></defs><g clip-path="url(#p334a77a673)"><use x="659.462" y="309.712" xlink:href="#mc059a4e2fc" style="fill:#bacbd5;fill-opacity:.8;stroke:#fff;stroke-opacity:.8;stroke-width:.3"/><use x="496.642" y="296.273" xlink:href="#mc059a4e2fc" style="fill:#bacbd5;fill-opacity:.8;stroke:#fff;stroke-opacity:.8;stroke-width:.3"/><use x="677.43" y="239.501" xlink:href="#mc059a4e2fc" style="fill:#bacbd5;fill-opacity:.8;stroke:#fff;stroke-opacity:.8;stroke-width:.3"/><use x="677.43" y="213.6" xlink:href="#mc059a4e2fc" style="fill:#bacbd5;fill-opacity:.8;stroke:#fff;stroke-opacity:.8;stroke-width:.3"/><use x="395.11" y="268.043" xlink:href="#mc059a4e2fc" style="fill:#bacbd5;fill-opacity:.8;stroke:#fff;stroke-opacity:.8;stroke-width:.3"/><use x="551.844" y="225.56" xlink:href="#mc059a4e2fc" style="fill:#bacbd5;fill-opacity:.8;stroke:#fff;stroke-opacity:.8;stroke-width:.3"/><use x="395.11" y="266.444" xlink:href="#mc059a4e2fc" style="fill:#bacbd5;fill-opacity:.8;stroke:#fff;stroke-opacity:.8;stroke-width:.3"/><use x="677.43" y="249.344" xlink:href="#mc059a4e2fc" style="fill:#bacbd5;fill-opacity:.8;stroke:#fff;stroke-opacity:.8;stroke-width:.3"/><use x="581.917" y="257.768" xlink:href="#mc059a4e2fc" style="fill:#bacbd5;fill-opacity:.8;stroke:#fff;stroke-opacity:.8;stroke-width:.3"/><use x="324.057" y="318.614" xlink:href="#mc059a4e2fc" style="fill:#bacbd5;fill-opacity:.8;stroke:#fff;stroke-opacity:.8;stroke-width:.3"/><use x="514.967" y="231.465" xlink:href="#mc059a4e2fc" style="fill:#bacbd5;fill-opacity:.8;stroke:#fff;stroke-opacity:.8;stroke-width:.3"/><use x="412.015" y="319.66" xlink:href="#mc059a4e2fc" style="fill:#bacbd5;fill-opacity:.8;stroke:#fff;stroke-opacity:.8;stroke-width:.3"/><use x="234.631" y="300.782" xlink:href="#mc059a4e2fc" style="fill:#bacbd5;fill-opacity:.8;stroke:#fff;stroke-opacity:.8;stroke-width:.3"/><use x="548.315" y="319.647" xlink:href="#mc059a4e2fc" style="fill:#bacbd5;fill-opacity:.8;stroke:#fff;stroke-opacity:.8;stroke-width:.3"/><use x="377.607" y="272.385" xlink:href="#mc059a4e2fc" style="fill:#bacbd5;fill-opacity:.8;stroke:#fff;stroke-opacity:.8;stroke-width:.3"/><use x="630.142" y="245.616" xlink:href="#mc059a4e2fc" style="fill:#bacbd5;fill-opacity:.8;stroke:#fff;stroke-opacity:.8;stroke-width:.3"/><use x="630.142" y="275.329" xlink:href="#mc059a4e2fc" style="fill:#bacbd5;fill-opacity:.8;stroke:#fff;stroke-opacity:.8;stroke-width:.3"/><use x="380.905" y="248.755" xlink:href="#mc059a4e2fc" style="fill:#bacbd5;fill-opacity:.8;stroke:#fff;stroke-opacity:.8;stroke-width:.3"/><use x="276.838" y="323.767" xlink:href="#mc059a4e2fc" style="fill:#bacbd5;fill-opacity:.8;stroke:#fff;stroke-opacity:.8;stroke-width:.3"/><use x="378.087" y="275.364" xlink:href="#mc059a4e2fc" style="fill:#bacbd5;fill-opacity:.8;stroke:#fff;stroke-opacity:.8;stroke-width:.3"/><use x="335.988" y="254.639" xlink:href="#mc059a4e2fc" style="fill:#bacbd5;fill-opacity:.8;stroke:#fff;stroke-opacity:.8;stroke-width:.3"/><use x="558.928" y="222.954" xlink:href="#mc059a4e2fc" style="fill:#bacbd5;fill-opacity:.8;stroke:#fff;stroke-opacity:.8;stroke-width:.3"/><use x="481.944" y="253.523" xlink:href="#mc059a4e2fc" style="fill:#bacbd5;fill-opacity:.8;stroke:#fff;stroke-opacity:.8;stroke-width:.3"/><use x="591.912" y="292.125" xlink:href="#mc059a4e2fc" style="fill:#bacbd5;fill-opacity:.8;stroke:#fff;stroke-opacity:.8;stroke-width:.3"/><use x="382.274" y="313.127" xlink:href="#mc059a4e2fc" style="fill:#bacbd5;fill-opacity:.8;stroke:#fff;stroke-opacity:.8;stroke-width:.3"/><use x="322.037" y="270.521" xlink:href="#mc059a4e2fc" style="fill:#bacbd5;fill-opacity:.8;stroke:#fff;stroke-opacity:.8;stroke-width:.3"/><use x="431.31" y="316.904" xlink:href="#mc059a4e2fc" style="fill:#bacbd5;fill-opacity:.8;stroke:#fff;stroke-opacity:.8;stroke-width:.3"/><use x="342.474" y="324.858" xlink:href="#mc059a4e2fc" style="fill:#bacbd5;fill-opacity:.8;stroke:#fff;stroke-opacity:.8;stroke-width:.3"/><use x="108.954" y="292.736" xlink:href="#mc059a4e2fc" style="fill:#bacbd5;fill-opacity:.8;stroke:#fff;stroke-opacity:.8;stroke-width:.3"/><use x="431.31" y="385.51" xlink:href="#mc059a4e2fc" style="fill:#bacbd5;fill-opacity:.8;stroke:#fff;stroke-opacity:.8;stroke-width:.3"/><use x="567.106" y="353.836" xlink:href="#mc059a4e2fc" style="fill:#bacbd5;fill-opacity:.8;stroke:#fff;stroke-opacity:.8;stroke-width:.3"/><use x="516.006" y="380.418" xlink:href="#mc059a4e2fc" style="fill:#bacbd5;fill-opacity:.8;stroke:#fff;stroke-opacity:.8;stroke-width:.3"/><use x="330.72" y="350.594" xlink:href="#mc059a4e2fc" style="fill:#bacbd5;fill-opacity:.8;stroke:#fff;stroke-opacity:.8;stroke-width:.3"/><use x="395.866" y="288.408" xlink:href="#mc059a4e2fc" style="fill:#bacbd5;fill-opacity:.8;stroke:#fff;stroke-opacity:.8;stroke-width:.3"/><use x="516.006" y="374.623" xlink:href="#mc059a4e2fc" style="fill:#bacbd5;fill-opacity:.8;stroke:#fff;stroke-opacity:.8;stroke-width:.3"/><use x="342.474" y="367.531" xlink:href="#mc059a4e2fc" style="fill:#bacbd5;fill-opacity:.8;stroke:#fff;stroke-opacity:.8;stroke-width:.3"/><use x="427.247" y="370.152" xlink:href="#mc059a4e2fc" style="fill:#bacbd5;fill-opacity:.8;stroke:#fff;stroke-opacity:.8;stroke-width:.3"/><use x="342.474" y="367.831" xlink:href="#mc059a4e2fc" style="fill:#bacbd5;fill-opacity:.8;stroke:#fff;stroke-opacity:.8;stroke-width:.3"/><use x="342.474" y="367.831" xlink:href="#mc059a4e2fc" style="fill:#bacbd5;fill-opacity:.8;stroke:#fff;stroke-opacity:.8;stroke-width:.3"/><use x="426.754" y="370.4" xlink:href="#mc059a4e2fc" style="fill:#bacbd5;fill-opacity:.8;stroke:#fff;stroke-opacity:.8;stroke-width:.3"/><use x="516.006" y="372.936" xlink:href="#mc059a4e2fc" style="fill:#bacbd5;fill-opacity:.8;stroke:#fff;stroke-opacity:.8;stroke-width:.3"/><use x="577.41" y="385.447" xlink:href="#mc059a4e2fc" style="fill:#bacbd5;fill-opacity:.8;stroke:#fff;stroke-opacity:.8;stroke-width:.3"/><use x="342.474" y="357.906" xlink:href="#mc059a4e2fc" style="fill:#bacbd5;fill-opacity:.8;stroke:#fff;stroke-opacity:.8;stroke-width:.3"/><use x="516.006" y="387.16" xlink:href="#mc059a4e2fc" style="fill:#bacbd5;fill-opacity:.8;stroke:#fff;stroke-opacity:.8;stroke-width:.3"/><use x="342.474" y="343.08" xlink:href="#mc059a4e2fc" style="fill:#bacbd5;fill-opacity:.8;stroke:#fff;stroke-opacity:.8;stroke-width:.3"/><use x="342.474" y="343.08" xlink:href="#mc059a4e2fc" style="fill:#bacbd5;fill-opacity:.8;stroke:#fff;stroke-opacity:.8;stroke-width:.3"/><use x="342.474" y="343.08" xlink:href="#mc059a4e2fc" style="fill:#bacbd5;fill-opacity:.8;stroke:#fff;stroke-opacity:.8;stroke-width:.3"/><use x="520.232" y="402.805" xlink:href="#mc059a4e2fc" style="fill:#bacbd5;fill-opacity:.8;stroke:#fff;stroke-opacity:.8;stroke-width:.3"/><use x="431.31" y="390.802" xlink:href="#mc059a4e2fc" style="fill:#bacbd5;fill-opacity:.8;stroke:#fff;stroke-opacity:.8;stroke-width:.3"/><use x="431.31" y="404.318" xlink:href="#mc059a4e2fc" style="fill:#bacbd5;fill-opacity:.8;stroke:#fff;stroke-opacity:.8;stroke-width:.3"/><use x="395.11" y="391.283" xlink:href="#mc059a4e2fc" style="fill:#bacbd5;fill-opacity:.8;stroke:#fff;stroke-opacity:.8;stroke-width:.3"/><use x="427.247" y="403.954" xlink:href="#mc059a4e2fc" style="fill:#bacbd5;fill-opacity:.8;stroke:#fff;stroke-opacity:.8;stroke-width:.3"/><use x="430.374" y="415.77" xlink:href="#mc059a4e2fc" style="fill:#bacbd5;fill-opacity:.8;stroke:#fff;stroke-opacity:.8;stroke-width:.3"/><use x="227.604" y="423.184" xlink:href="#mc059a4e2fc" style="fill:#bacbd5;fill-opacity:.8;stroke:#fff;stroke-opacity:.8;stroke-width:.3"/><use x="342.474" y="453.6" xlink:href="#mc059a4e2fc" style="fill:#bacbd5;fill-opacity:.8;stroke:#fff;stroke-opacity:.8;stroke-width:.3"/><use x="341.694" y="415.532" xlink:href="#mc059a4e2fc" style="fill:#bacbd5;fill-opacity:.8;stroke:#fff;stroke-opacity:.8;stroke-width:.3"/><use x="340.905" y="431.063" xlink:href="#mc059a4e2fc" style="fill:#bacbd5;fill-opacity:.8;stroke:#fff;stroke-opacity:.8;stroke-width:.3"/><use x="642.178" y="396.988" xlink:href="#mc059a4e2fc" style="fill:#bacbd5;fill-opacity:.8;stroke:#fff;stroke-opacity:.8;stroke-width:.3"/><use x="237.908" y="364.304" xlink:href="#mc059a4e2fc" style="fill:#bacbd5;fill-opacity:.8;stroke:#fff;stroke-opacity:.8;stroke-width:.3"/><use x="342.474" y="430.185" xlink:href="#mc059a4e2fc" style="fill:#bacbd5;fill-opacity:.8;stroke:#fff;stroke-opacity:.8;stroke-width:.3"/><use x="370.532" y="450.084" xlink:href="#mc059a4e2fc" style="fill:#bacbd5;fill-opacity:.8;stroke:#fff;stroke-opacity:.8;stroke-width:.3"/><use x="431.31" y="446.18" xlink:href="#mc059a4e2fc" style="fill:#bacbd5;fill-opacity:.8;stroke:#fff;stroke-opacity:.8;stroke-width:.3"/></g></g><g id="patch_3"><path d="M 74.304 482.4 L 712.08 482.4" style="fill:none;stroke:#cdd9e1;stroke-width:.8;stroke-linejoin:miter;stroke-linecap:square"/></g><g id="line2d_50"><path d="M 108.953552 292.73614 L 322.037197 270.521453 L 335.988474 254.638746 L 380.904688 248.755327 L 514.966643 231.464626 L 551.843945 225.560315 L 558.928073 222.954053 L 677.430448 213.6" clip-path="url(#p334a77a673)" style="fill:none;stroke-dasharray:5.6,4.2;stroke-dashoffset:0;stroke:#466b80;stroke-width:1.4"/></g><g id="PathCollection_2"><defs><path id="m05375dae47" d="M 0 2.645751 C 0.701661 2.645751 1.374679 2.366978 1.870829 1.870829 C 2.366978 1.374679 2.645751 0.701661 2.645751 0 C 2.645751 -0.701661 2.366978 -1.374679 1.870829 -1.870829 C 1.374679 -2.366978 0.701661 -2.645751 0 -2.645751 C -0.701661 -2.645751 -1.374679 -2.366978 -1.870829 -1.870829 C -2.366978 -1.374679 -2.645751 -0.701661 -2.645751 0 C -2.645751 0.701661 -2.366978 1.374679 -1.870829 1.870829 C -1.374679 2.366978 -0.701661 2.645751 0 2.645751 z" style="stroke:#466b80"/></defs><g clip-path="url(#p334a77a673)"><use x="108.954" y="292.736" xlink:href="#m05375dae47" style="fill:#fff;stroke:#466b80"/><use x="322.037" y="270.521" xlink:href="#m05375dae47" style="fill:#fff;stroke:#466b80"/><use x="335.988" y="254.639" xlink:href="#m05375dae47" style="fill:#fff;stroke:#466b80"/><use x="380.905" y="248.755" xlink:href="#m05375dae47" style="fill:#fff;stroke:#466b80"/><use x="514.967" y="231.465" xlink:href="#m05375dae47" style="fill:#fff;stroke:#466b80"/><use x="551.844" y="225.56" xlink:href="#m05375dae47" style="fill:#fff;stroke:#466b80"/><use x="558.928" y="222.954" xlink:href="#m05375dae47" style="fill:#fff;stroke:#466b80"/><use x="677.43" y="213.6" xlink:href="#m05375dae47" style="fill:#fff;stroke:#466b80"/></g></g><g id="legend_1"><g id="line2d_51"><path d="M 76.38624 157.248531 L 85.78624 157.248531 L 95.18624 157.248531" style="fill:none"/><defs><path id="mbb55e783e4" d="M 0 3 C 0.795609 3 1.55874 2.683901 2.12132 2.12132 C 2.683901 1.55874 3 0.795609 3 0 C 3 -0.795609 2.683901 -1.55874 2.12132 -2.12132 C 1.55874 -2.683901 0.795609 -3 0 -3 C -0.795609 -3 -1.55874 -2.683901 -2.12132 -2.12132 C -2.683901 -1.55874 -3 -0.795609 -3 0 C -3 0.795609 -2.683901 1.55874 -2.12132 2.12132 C -1.55874 2.683901 -0.795609 3 0 3 z" style="stroke:#bacbd5"/></defs><g><use x="85.786" y="157.249" xlink:href="#mbb55e783e4" style="fill:#bacbd5;stroke:#bacbd5"/></g></g><g id="text_12"><text style="font-size:9.4px;font-family:'DejaVu Sans';text-anchor:start;fill:#142b38" x="102.706" y="160.539" transform="rotate(-0 102.70624 160.538531)">All 62 known-size peers</text></g><g id="line2d_52"><path d="M 232.793428 157.248531 L 242.193428 157.248531 L 251.593428 157.248531" style="fill:none;stroke-dasharray:5.55,2.4;stroke-dashoffset:0;stroke:#466b80;stroke-width:1.5"/></g><g id="text_13"><text style="font-size:9.4px;font-family:'DejaVu Sans';text-anchor:start;fill:#142b38" x="259.113" y="160.539" transform="rotate(-0 259.113428 160.538531)">Observed Pareto frontier</text></g></g><g id="PathCollection_3"><defs><path id="m0f3e019ac2" d="M 0 3.708099 C 0.983399 3.708099 1.926654 3.317391 2.622022 2.622022 C 3.317391 1.926654 3.708099 0.983399 3.708099 0 C 3.708099 -0.983399 3.317391 -1.926654 2.622022 -2.622022 C 1.926654 -3.317391 0.983399 -3.708099 0 -3.708099 C -0.983399 -3.708099 -1.926654 -3.317391 -2.622022 -2.622022 C -3.317391 -1.926654 -3.708099 -0.983399 -3.708099 0 C -3.708099 0.983399 -3.317391 1.926654 -2.622022 2.622022 C -1.926654 3.317391 -0.983399 3.708099 0 3.708099 z" style="stroke:#fff;stroke-width:1.4"/></defs><g clip-path="url(#p334a77a673)"><use x="382.622" y="281.262" xlink:href="#m0f3e019ac2" style="fill:#008c78;stroke:#fff;stroke-width:1.4"/></g></g><g id="PathCollection_4"><defs><path id="mccb5fc4107" d="M 0 5.91608 C 1.568963 5.91608 3.073876 5.292724 4.1833 4.1833 C 5.292724 3.073876 5.91608 1.568963 5.91608 0 C 5.91608 -1.568963 5.292724 -3.073876 4.1833 -4.1833 C 3.073876 -5.292724 1.568963 -5.91608 0 -5.91608 C -1.568963 -5.91608 -3.073876 -5.292724 -4.1833 -4.1833 C -5.292724 -3.073876 -5.91608 -1.568963 -5.91608 0 C -5.91608 1.568963 -5.292724 3.073876 -4.1833 4.1833 C -3.073876 5.292724 -1.568963 5.91608 0 5.91608 z" style="stroke:#fff;stroke-width:1.4"/></defs><g clip-path="url(#p334a77a673)"><use x="538.754" y="257.827" xlink:href="#mccb5fc4107" style="fill:#d45a35;stroke:#fff;stroke-width:1.4"/></g></g><g id="patch_4"><path d="M 561.672006 253.929025 Q 551.199306 255.710172 540.726607 257.49132" style="fill:none;stroke:#d45a35;stroke-width:.65;stroke-linecap:round"/></g><g id="text_14"><g id="patch_5"><path d="M 560.754321 253.594151 L 646.108789 253.594151 Q 647.825789 253.594151 647.825789 251.877151 L 647.825789 241.776362 Q 647.825789 240.059362 646.108789 240.059362 L 560.754321 240.059362 Q 559.037321 240.059362 559.037321 241.776362 L 559.037321 251.877151 Q 559.037321 253.594151 560.754321 253.594151 z" style="fill:#fff;opacity:.96"/></g><text style="font-weight:700;font-size:10.1px;font-family:'DejaVu Sans';text-anchor:start;fill:#d45a35" x="560.754" y="249.451" transform="rotate(-0 560.754321 249.450784)">Vela Omni Mini</text></g><g id="patch_6"><path d="M 406.744069 276.728602 Q 395.665142 278.81095 384.586215 280.893298" style="fill:none;stroke:#a0b1bd;stroke-width:.65;stroke-linecap:round"/></g><g id="text_15"><g id="patch_7"><path d="M 404.62219 276.359803 L 477.671018 276.359803 Q 479.218018 276.359803 479.218018 274.812803 L 479.218018 265.712092 Q 479.218018 264.165092 477.671018 264.165092 L 404.62219 264.165092 Q 403.07519 264.165092 403.07519 265.712092 L 403.07519 274.812803 Q 403.07519 276.359803 404.62219 276.359803 z" style="fill:#fff;opacity:.96"/></g><text style="font-size:9.1px;font-family:'DejaVu Sans';text-anchor:start;fill:#466b80" x="404.622" y="272.627" transform="rotate(-0 404.62219 272.62667)">Vela Omni Nano</text></g><g id="patch_8"><path d="M 403.822822 244.239437 Q 393.344322 246.304167 382.865822 248.368897" style="fill:none;stroke:#a0b1bd;stroke-width:.65;stroke-linecap:round"/></g><g id="text_16"><g id="patch_9"><path d="M 402.904688 243.852683 L 470.554656 243.852683 Q 472.101656 243.852683 472.101656 242.305683 L 472.101656 233.204972 Q 472.101656 231.657972 470.554656 231.657972 L 402.904688 231.657972 Q 401.357688 231.657972 401.357688 233.204972 L 401.357688 242.305683 Q 401.357688 243.852683 402.904688 243.852683 z" style="fill:#fff;opacity:.96"/></g><text style="font-size:9.1px;font-family:'DejaVu Sans';text-anchor:start;fill:#466b80" x="402.905" y="240.12" transform="rotate(-0 402.904688 240.11955)">Microsoft CLAP</text></g><g id="patch_10"><path d="M 541.620013 226.899657 Q 529.277537 229.013574 516.935062 231.127491" style="fill:none;stroke:#a0b1bd;stroke-width:.65;stroke-linecap:round"/></g><g id="text_17"><g id="patch_11"><path d="M 536.966643 226.561981 L 621.417486 226.561981 Q 622.964486 226.561981 622.964486 225.014981 L 622.964486 215.91427 Q 622.964486 214.36727 621.417486 214.36727 L 536.966643 214.36727 Q 535.419643 214.36727 535.419643 215.91427 L 535.419643 225.014981 Q 535.419643 226.561981 536.966643 226.561981 z" style="fill:#fff;opacity:.96"/></g><text style="font-size:9.1px;font-family:'DejaVu Sans';text-anchor:start;fill:#466b80" x="536.967" y="222.829" transform="rotate(-0 536.966643 222.828848)">Jina Omni Nano v5</text></g><g id="patch_12"><path d="M 297.071062 319.295755 Q 287.931351 321.315671 278.79164 323.335587" style="fill:none;stroke:#a0b1bd;stroke-width:.65;stroke-linecap:round"/></g><g id="text_18"><g id="patch_13"><path d="M 298.837982 318.864709 L 354.383529 318.864709 Q 355.930529 318.864709 355.930529 317.317709 L 355.930529 308.216998 Q 355.930529 306.669998 354.383529 306.669998 L 298.837982 306.669998 Q 297.290982 306.669998 297.290982 308.216998 L 297.290982 317.317709 Q 297.290982 318.864709 298.837982 318.864709 z" style="fill:#fff;opacity:.96"/></g><text style="font-size:9.1px;font-family:'DejaVu Sans';text-anchor:start;fill:#466b80" x="298.838" y="315.132" transform="rotate(-0 298.837982 315.131576)">whisper-tiny</text></g><g id="patch_14"><path d="M 521.348504 291.73174 Q 509.979923 293.821267 498.611343 295.910794" style="fill:none;stroke:#a0b1bd;stroke-width:.65;stroke-linecap:round"/></g><g id="text_19"><g id="patch_15"><path d="M 518.641935 291.370124 L 594.338294 291.370124 Q 595.885294 291.370124 595.885294 289.823124 L 595.885294 280.722413 Q 595.885294 279.175413 594.338294 279.175413 L 518.641935 279.175413 Q 517.094935 279.175413 517.094935 280.722413 L 517.094935 289.823124 Q 517.094935 291.370124 518.641935 291.370124 z" style="fill:#fff;opacity:.96"/></g><text style="font-size:9.1px;font-family:'DejaVu Sans';text-anchor:start;fill:#466b80" x="518.642" y="287.637" transform="rotate(-0 518.641935 287.636991)">whisper-medium</text></g><g id="patch_16"><path d="M 572.996349 315.105742 Q 561.639383 317.195269 550.282416 319.284796" style="fill:none;stroke:#a0b1bd;stroke-width:.65;stroke-linecap:round"/></g><g id="text_20"><g id="patch_17"><path d="M 570.31502 314.744125 L 645.889098 314.744125 Q 647.436098 314.744125 647.436098 313.197125 L 647.436098 304.096414 Q 647.436098 302.549414 645.889098 302.549414 L 570.31502 302.549414 Q 568.76802 302.549414 568.76802 304.096414 L 568.76802 313.197125 Q 568.76802 314.744125 570.31502 314.744125 z" style="fill:#fff;opacity:.96"/></g><text style="font-size:9.1px;font-family:'DejaVu Sans';text-anchor:start;fill:#466b80" x="570.315" y="311.011" transform="rotate(-0 570.31502 311.010992)">whisper-large-v3</text></g><g id="patch_18"><path d="M 451.675758 312.429913 Q 442.468836 314.452549 433.261914 316.475184" style="fill:none;stroke:#a0b1bd;stroke-width:.65;stroke-linecap:round"/></g><g id="text_21"><g id="patch_19"><path d="M 453.310399 312.001261 L 509.453134 312.001261 Q 511.000134 312.001261 511.000134 310.454261 L 511.000134 301.35355 Q 511.000134 299.80655 509.453134 299.80655 L 453.310399 299.80655 Q 451.763399 299.80655 451.763399 301.35355 L 451.763399 310.454261 Q 451.763399 312.001261 453.310399 312.001261 z" style="fill:#fff;opacity:.96"/></g><text style="font-size:9.1px;font-family:'DejaVu Sans';text-anchor:start;fill:#466b80" x="453.31" y="308.268" transform="rotate(-0 453.310399 308.268128)">wavlm-large</text></g><g id="patch_20"><path d="M 127.606209 287.525939 Q 119.243024 289.862007 110.87984 292.198075" style="fill:none;stroke:#a0b1bd;stroke-width:.65;stroke-linecap:round"/></g><g id="text_22"><g id="patch_21"><path d="M 130.953552 287.83314 L 165.71413 287.83314 Q 167.26113 287.83314 167.26113 286.28614 L 167.26113 277.18614 Q 167.26113 275.63914 165.71413 275.63914 L 130.953552 275.63914 Q 129.406552 275.63914 129.406552 277.18614 L 129.406552 286.28614 Q 129.406552 287.83314 130.953552 287.83314 z" style="fill:#fff;opacity:.96"/></g><text style="font-size:9.1px;font-family:'DejaVu Sans';text-anchor:start;fill:#466b80" x="130.954" y="284.1" transform="rotate(-0 130.953552 284.100007)">yamnet</text></g><g id="patch_22"><path d="M 340.649863 265.228492 Q 332.304609 267.601667 323.959355 269.974841" style="fill:none;stroke:#a0b1bd;stroke-width:.65;stroke-linecap:round"/></g><g id="text_23"><g id="patch_23"><path d="M 344.037197 265.618808 L 377.400072 265.618808 Q 378.947072 265.618808 378.947072 264.071808 L 378.947072 254.971097 Q 378.947072 253.424097 377.400072 253.424097 L 344.037197 253.424097 Q 342.490197 253.424097 342.490197 254.971097 L 342.490197 264.071808 Q 342.490197 265.618808 344.037197 265.618808 z" style="fill:#fff;opacity:.96"/></g><text style="font-size:9.1px;font-family:'DejaVu Sans';text-anchor:start;fill:#466b80" x="344.037" y="261.886" transform="rotate(-0 344.037197 261.885676)">VGGish</text></g><g id="patch_24"><path d="M 314.484783 250.144404 Q 324.25883 252.187212 334.032877 254.23002" style="fill:none;stroke:#a0b1bd;stroke-width:.65;stroke-linecap:round"/></g><g id="text_24"><g id="patch_25"><path d="M 252.726989 249.736102 L 313.988474 249.736102 Q 315.535474 249.736102 315.535474 248.189102 L 315.535474 239.088391 Q 315.535474 237.541391 313.988474 237.541391 L 252.726989 237.541391 Q 251.179989 237.541391 251.179989 239.088391 L 251.179989 248.189102 Q 251.179989 249.736102 252.726989 249.736102 z" style="fill:#fff;opacity:.96"/></g><text style="font-size:9.1px;font-family:'DejaVu Sans';text-anchor:end;fill:#466b80" x="313.988" y="246.003" transform="rotate(-0 313.988474 246.002969)">AST AudioSet</text></g><g id="patch_26"><path d="M 601.904754 210.243127 Q 577.829183 217.609569 553.753613 224.976011" style="fill:none;stroke:#a0b1bd;stroke-width:.65;stroke-linecap:round"/></g><g id="text_25"><g id="patch_27"><path d="M 551.843945 209.657671 L 695.648117 209.657671 Q 697.195117 209.657671 697.195117 208.110671 L 697.195117 199.00996 Q 697.195117 197.46296 695.648117 197.46296 L 551.843945 197.46296 Q 550.296945 197.46296 550.296945 199.00996 L 550.296945 208.110671 Q 550.296945 209.657671 551.843945 209.657671 z" style="fill:#fff;opacity:.96"/></g><text style="font-size:9.1px;font-family:'DejaVu Sans';text-anchor:start;fill:#466b80" x="551.844" y="205.925" transform="rotate(-0 551.843945 205.924538)">jina-embeddings-v5-omni-small</text></g><g id="patch_28"><path d="M 520.503938 210.659223 Q 538.7615 216.501219 557.019061 222.343214" style="fill:none;stroke:#a0b1bd;stroke-width:.65;stroke-linecap:round"/></g><g id="text_26"><g id="patch_29"><path d="M 478.169448 210.051409 L 520.928073 210.051409 Q 522.475073 210.051409 522.475073 208.504409 L 522.475073 199.403698 Q 522.475073 197.856698 520.928073 197.856698 L 478.169448 197.856698 Q 476.622448 197.856698 476.622448 199.403698 L 476.622448 208.504409 Q 476.622448 210.051409 478.169448 210.051409 z" style="fill:#fff;opacity:.96"/></g><text style="font-size:9.1px;font-family:'DejaVu Sans';text-anchor:end;fill:#466b80" x="520.928" y="206.318" transform="rotate(-0 520.928073 206.318276)">ebind-full</text></g><g id="patch_30"><path d="M 612.633426 191.346855 Q 644.084739 202.148133 675.536053 212.949411" style="fill:none;stroke:#a0b1bd;stroke-width:.65;stroke-linecap:round"/></g><g id="text_27"><g id="patch_31"><path d="M 566.545229 190.697355 L 619.430448 190.697355 Q 620.977448 190.697355 620.977448 189.150355 L 620.977448 180.049645 Q 620.977448 178.502645 619.430448 178.502645 L 566.545229 178.502645 Q 564.998229 178.502645 564.998229 180.049645 L 564.998229 189.150355 Q 564.998229 190.697355 566.545229 190.697355 z" style="fill:#fff;opacity:.96"/></g><text style="font-size:9.1px;font-family:'DejaVu Sans';text-anchor:end;fill:#466b80" x="619.43" y="186.964" transform="rotate(-0 619.430448 186.964223)">e5-omni-7B</text></g></g><g id="axes_2"><g id="patch_32"><path d="M 792.576 347.1048 L 1191.3408 347.1048 L 1191.3408 321.7176 L 792.576 321.7176 z" clip-path="url(#p0f0fbbd132)" style="fill:#d45a35;opacity:.09"/></g><g id="line2d_53"><path d="M 792.576 194.472 L 1191.3408 194.472" clip-path="url(#p0f0fbbd132)" style="fill:none;stroke:#dce6eb;stroke-linecap:square"/></g><g id="text_28"><text style="font-weight:700;font-size:12.4px;font-family:'DejaVu Sans';text-anchor:start;fill:#142b38" x="792.576" y="154.224" transform="rotate(-0 792.576 154.224)">Leading models at ≤ 1.361B</text></g><g id="text_29"><text style="font-size:9.5px;font-family:'DejaVu Sans';text-anchor:start;fill:#607080" x="796.564" y="185.184" transform="rotate(-0 796.563648 185.184)">#</text></g><g id="text_30"><text style="font-size:9.5px;font-family:'DejaVu Sans';text-anchor:start;fill:#607080" x="828.465" y="185.184" transform="rotate(-0 828.464832 185.184)">Model</text></g><g id="text_31"><text style="font-size:9.5px;font-family:'DejaVu Sans';text-anchor:end;fill:#607080" x="1099.625" y="185.184" transform="rotate(-0 1099.624896 185.184)">Size</text></g><g id="text_32"><text style="font-size:9.5px;font-family:'DejaVu Sans';text-anchor:end;fill:#607080" x="1187.353" y="185.184" transform="rotate(-0 1187.353152 185.184)">Score</text></g><g id="text_33"><text style="font-size:9.5px;font-family:'DejaVu Sans';text-anchor:start;fill:#142b38" x="796.564" y="215.516" transform="rotate(-0 796.563648 215.515773)">1</text></g><g id="text_34"><text style="font-size:9.5px;font-family:'DejaVu Sans';text-anchor:start;fill:#142b38" x="828.465" y="215.516" transform="rotate(-0 828.464832 215.516145)">Jina Omni Nano v5</text></g><g id="text_35"><text style="font-size:9.5px;font-family:'DejaVu Sans';text-anchor:end;fill:#142b38" x="1099.625" y="215.516" transform="rotate(-0 1099.624896 215.515773)">986M</text></g><g id="text_36"><text style="font-size:9.5px;font-family:'DejaVu Sans';text-anchor:end;fill:#142b38" x="1187.353" y="215.516" transform="rotate(-0 1187.353152 215.515773)">57.72</text></g><g id="text_37"><text style="font-size:9.5px;font-family:'DejaVu Sans';text-anchor:start;fill:#142b38" x="796.564" y="246.166" transform="rotate(-0 796.563648 246.166173)">2</text></g><g id="text_38"><text style="font-size:9.5px;font-family:'DejaVu Sans';text-anchor:start;fill:#142b38" x="828.465" y="246.167" transform="rotate(-0 828.464832 246.166545)">Microsoft CLAP</text></g><g id="text_39"><text style="font-size:9.5px;font-family:'DejaVu Sans';text-anchor:end;fill:#142b38" x="1099.625" y="246.166" transform="rotate(-0 1099.624896 246.166173)">160M</text></g><g id="text_40"><text style="font-size:9.5px;font-family:'DejaVu Sans';text-anchor:end;fill:#142b38" x="1187.353" y="246.166" transform="rotate(-0 1187.353152 246.166173)">55.85</text></g><g id="text_41"><text style="font-size:9.5px;font-family:'DejaVu Sans';text-anchor:start;fill:#142b38" x="796.564" y="276.817" transform="rotate(-0 796.563648 276.816573)">3</text></g><g id="text_42"><text style="font-size:9.5px;font-family:'DejaVu Sans';text-anchor:start;fill:#142b38" x="828.465" y="276.817" transform="rotate(-0 828.464832 276.816573)">MuQ MuLan Large</text></g><g id="text_43"><text style="font-size:9.5px;font-family:'DejaVu Sans';text-anchor:end;fill:#142b38" x="1099.625" y="276.817" transform="rotate(-0 1099.624896 276.816573)">630M</text></g><g id="text_44"><text style="font-size:9.5px;font-family:'DejaVu Sans';text-anchor:end;fill:#142b38" x="1187.353" y="276.817" transform="rotate(-0 1187.353152 276.816573)">55.33</text></g><g id="text_45"><text style="font-size:9.5px;font-family:'DejaVu Sans';text-anchor:start;fill:#142b38" x="796.564" y="307.467" transform="rotate(-0 796.563648 307.466973)">4</text></g><g id="text_46"><text style="font-size:9.5px;font-family:'DejaVu Sans';text-anchor:start;fill:#142b38" x="828.465" y="307.467" transform="rotate(-0 828.464832 307.467345)">AST AudioSet</text></g><g id="text_47"><text style="font-size:9.5px;font-family:'DejaVu Sans';text-anchor:end;fill:#142b38" x="1099.625" y="307.467" transform="rotate(-0 1099.624896 307.466973)">87M</text></g><g id="text_48"><text style="font-size:9.5px;font-family:'DejaVu Sans';text-anchor:end;fill:#142b38" x="1187.353" y="307.467" transform="rotate(-0 1187.353152 307.466973)">55.21</text></g><g id="text_49"><text style="font-weight:700;font-size:9.5px;font-family:'DejaVu Sans';text-anchor:start;fill:#d45a35" x="796.564" y="338.117" transform="rotate(-0 796.563648 338.117373)">5</text></g><g id="text_50"><text style="font-weight:700;font-size:9.5px;font-family:'DejaVu Sans';text-anchor:start;fill:#d45a35" x="828.465" y="338.118" transform="rotate(-0 828.464832 338.117745)">Vela Omni Mini</text></g><g id="text_51"><text style="font-weight:700;font-size:9.5px;font-family:'DejaVu Sans';text-anchor:end;fill:#d45a35" x="1099.625" y="338.117" transform="rotate(-0 1099.624896 338.117373)">1.361B</text></g><g id="text_52"><text style="font-weight:700;font-size:9.5px;font-family:'DejaVu Sans';text-anchor:end;fill:#d45a35" x="1187.353" y="338.117" transform="rotate(-0 1187.353152 338.117373)">54.87</text></g><g id="text_53"><text style="font-size:9.5px;font-family:'DejaVu Sans';text-anchor:start;fill:#142b38" x="796.564" y="368.768" transform="rotate(-0 796.563648 368.767773)">6</text></g><g id="text_54"><text style="font-size:9.5px;font-family:'DejaVu Sans';text-anchor:start;fill:#142b38" x="828.465" y="368.768" transform="rotate(-0 828.464832 368.768145)">CLAP music / speech</text></g><g id="text_55"><text style="font-size:9.5px;font-family:'DejaVu Sans';text-anchor:end;fill:#142b38" x="1099.625" y="368.768" transform="rotate(-0 1099.624896 368.767773)">194M</text></g><g id="text_56"><text style="font-size:9.5px;font-family:'DejaVu Sans';text-anchor:end;fill:#142b38" x="1187.353" y="368.768" transform="rotate(-0 1187.353152 368.767773)">53.94</text></g><g id="text_57"><text style="font-size:9.5px;font-family:'DejaVu Sans';text-anchor:start;fill:#142b38" x="796.564" y="399.418" transform="rotate(-0 796.563648 399.418173)">7</text></g><g id="text_58"><text style="font-size:9.5px;font-family:'DejaVu Sans';text-anchor:start;fill:#142b38" x="828.465" y="399.419" transform="rotate(-0 828.464832 399.418545)">larger_clap_general</text></g><g id="text_59"><text style="font-size:9.5px;font-family:'DejaVu Sans';text-anchor:end;fill:#142b38" x="1099.625" y="399.418" transform="rotate(-0 1099.624896 399.418173)">194M</text></g><g id="text_60"><text style="font-size:9.5px;font-family:'DejaVu Sans';text-anchor:end;fill:#142b38" x="1187.353" y="399.418" transform="rotate(-0 1187.353152 399.418173)">53.76</text></g><g id="text_61"><text style="font-size:9.5px;font-family:'DejaVu Sans';text-anchor:start;fill:#142b38" x="796.564" y="430.069" transform="rotate(-0 796.563648 430.068573)">8</text></g><g id="text_62"><text style="font-size:9.5px;font-family:'DejaVu Sans';text-anchor:start;fill:#142b38" x="828.465" y="430.069" transform="rotate(-0 828.464832 430.068945)">VGGish</text></g><g id="text_63"><text style="font-size:9.5px;font-family:'DejaVu Sans';text-anchor:end;fill:#142b38" x="1099.625" y="430.069" transform="rotate(-0 1099.624896 430.068573)">72M</text></g><g id="text_64"><text style="font-size:9.5px;font-family:'DejaVu Sans';text-anchor:end;fill:#142b38" x="1187.353" y="430.069" transform="rotate(-0 1187.353152 430.068573)">53.50</text></g></g><g id="text_65"><text style="font-weight:700;font-size:24px;font-family:'DejaVu Sans';text-anchor:start;fill:#142b38" x="68.112" y="36" transform="rotate(-0 68.112 36)">MAEB(beta, audio-only)</text></g><g id="text_66"><text style="font-size:10px;font-family:'DejaVu Sans';text-anchor:start;fill:#d45a35" x="68.112" y="84.24" transform="rotate(-0 68.112 84.24)">Default shared mode</text></g><g id="text_67"><text style="font-size:12px;font-family:'DejaVu Sans';text-anchor:start;fill:#607080" x="68.112" y="66.96" transform="rotate(-0 68.112 66.96)">19 complete tasks · 5 task types · Mean(TaskType), 0–100</text></g><g id="text_68"><text style="font-weight:700;font-size:13px;font-family:'DejaVu Sans';text-anchor:end;fill:#d45a35" x="1195.056" y="34.56" transform="rotate(-0 1195.056 34.56)">VELA MINI</text></g><g id="text_69"><text style="font-weight:700;font-size:15px;font-family:'DejaVu Sans';text-anchor:start;fill:#d45a35" x="68.112" y="106.56" transform="rotate(-0 68.112 106.56)">Vela Mini 54.87 · Global 12/64 · At ≤ size 5/50</text></g><g id="text_70"><text style="font-size:11px;font-family:'DejaVu Sans';text-anchor:start;fill:#607080" x="68.112" y="131.76" transform="rotate(-0 68.112 131.76)">1.361B total parameters · Gap to best at ≤ size: 2.85 points</text></g><g id="text_71"><text style="font-weight:700;font-size:11px;font-family:'DejaVu Sans';text-anchor:start;fill:#142b38" x="68.112" y="545.76" transform="rotate(-0 68.112 545.76)">Complete-panel results</text></g><g id="text_72"><text style="font-size:10px;font-family:'DejaVu Sans';text-anchor:start;fill:#607080" x="284.832" y="545.76" transform="rotate(-0 284.832 545.76)">Mean(TaskType) · global rank · rank at ≤ size</text></g><g id="text_73"><text style="font-size:10px;font-family:'DejaVu Sans';text-anchor:start;fill:#607080" x="817.344" y="545.76" transform="rotate(-0 817.344 545.76)">Mean(Task) · supplementary</text></g><g id="text_74"><text style="font-size:10px;font-family:'DejaVu Sans';text-anchor:start;fill:#142b38" x="68.112" y="568.08" transform="rotate(-0 68.112 568.08)">English41</text></g><g id="text_75"><text style="font-size:10px;font-family:'DejaVu Sans';text-anchor:start;fill:#142b38" x="284.832" y="568.08" transform="rotate(-0 284.832 568.08)">64.68 · 38/188 · 10/134</text></g><g id="text_76"><text style="font-size:10px;font-family:'DejaVu Sans';text-anchor:start;fill:#142b38" x="817.344" y="568.08" transform="rotate(-0 817.344 568.08)">70.38</text></g><g id="text_77"><text style="font-weight:700;font-size:10px;font-family:'DejaVu Sans';text-anchor:start;fill:#142b38" x="68.112" y="591.12" transform="rotate(-0 68.112 591.12)">audio19</text></g><g id="text_78"><text style="font-size:10px;font-family:'DejaVu Sans';text-anchor:start;fill:#142b38" x="284.832" y="591.12" transform="rotate(-0 284.832 591.12)">54.87 · 12/64 · 5/50</text></g><g id="text_79"><text style="font-size:10px;font-family:'DejaVu Sans';text-anchor:start;fill:#142b38" x="817.344" y="591.12" transform="rotate(-0 817.344 591.12)">47.77</text></g><g id="text_80"><text style="font-size:9px;font-family:'DejaVu Sans';text-anchor:start;fill:#607080" x="68.112" y="654.48" transform="rotate(-0 68.112 654.48)">Modes · English: Nano shared text, Mini fixed official instructions. Audio: both shared mode.</text></g><g id="text_81"><text style="font-size:9px;font-family:'DejaVu Sans';text-anchor:start;fill:#607080" x="68.112" y="675.36" transform="rotate(-0 68.112 675.36)">2026-09-17 registry snapshot + current Vela reports. All Vela modalities count toward size; peer sizes are reported totals.</text></g><g id="text_82"><text style="font-size:9px;font-family:'DejaVu Sans';text-anchor:start;fill:#607080" x="68.112" y="691.92" transform="rotate(-0 68.112 691.92)">0 unknown-size complete peers count in global ranks only. Recorded evaluation protocols can differ; panels are not combined into an overall rank.</text></g></g><defs><clipPath id="p334a77a673"><rect width="637.776" height="309.6" x="74.304" y="172.8"/></clipPath><clipPath id="p0f0fbbd132"><rect width="398.765" height="309.6" x="792.576" y="172.8"/></clipPath></defs></svg>